<svg class="icon icon__tap" version="1.1" xmlns="http://www.w3.org/2000/svg" x="0px" y="0px" viewBox="0 0 41 62" xmlSpace="preserve">
  <g id="Das-andere-Gesicht_ELEMENTE" transform="translate(-790.000000, -4001.000000)">
    <g id="Frage_Schieberegler" transform="translate(574.000000, 3604.000000)">
      <g id="Group-8" transform="translate(123.000000, 347.000000)">
        <g id="interactive-1-copy" transform="translate(113.328838, 80.423394) rotate(-30.000000) translate(-113.328838, -80.423394) translate(80.328838, 43.923394)">
          <path id="Shape" class="st0" d="M40.6,17.8l1.8,1l5.2-9l-1.8-1L40.6,17.8z M52.8,35.2l1-1.8l-9-5.2l-1,1.8L52.8,35.2z M30.1,22.1l1-1.8l-9-5.2l-1,1.8L30.1,22.1z M41.3,26.8c1.1-1.9,0.6-4.3-1.4-5.4c-1.9-1.1-4.4-0.4-5.5,1.5l-10,17.3c-0.2-1.7-0.8-4.2-2.3-5.1c-1.3-0.8-3.2-0.7-4.4,1.3c-0.7,1.2-1,3.8-1.1,5.7l-0.8,13.1c-0.2,3.6,0.8,7.1,4.2,9.1l6.6,3.8c3,1.7,10.6,0.9,13.9-4.8l8.2-14.2c1.1-1.9,0.6-4.3-1.4-5.4c-0.6-0.3-1.3-0.5-1.9-0.5c0.6-1.8,0.1-3.8-1.7-4.8c-0.7-0.4-1.4-0.6-2.2-0.5c0.3-1.6-0.3-3.3-1.9-4.2c-0.6-0.3-1.2-0.5-1.9-0.5L41.3,26.8z M24.8,43.7l11.4-19.8c0.6-1,1.7-1.3,2.6-0.7c0.9,0.5,1.2,1.7,0.6,2.6l-7.7,13.3l1.8,1L36,36c0.5-0.8,1.6-1.1,2.5-0.5s1.2,1.7,0.6,2.6l-3.4,5.8l1.8,1l2.4-4.2c0.5-0.8,1.6-1.1,2.5-0.5c0.9,0.5,1.2,1.7,0.6,2.6l-3.4,5.8l1.8,1l2.1-3.6c0.5-0.8,1.6-1.1,2.5-0.5c0.9,0.5,1.2,1.7,0.6,2.6l-8.2,14.2c-2.6,4.6-8.7,5.4-11.1,4l-6.6-3.8c-2.6-1.5-3.3-4.3-3.2-7.2l0.8-13.1c0.1-1.6,0.4-3.9,0.9-4.7c0.5-0.8,1.1-0.8,1.5-0.6c1,0.6,1.3,2.6,1.5,3.8l0.4,2.8L24.8,43.7z M34.5,17.8l2.1-0.6l-2.7-10l-2.1,0.6L34.5,17.8z M55.3,21.4l-0.5-2l-10,2.7l0.5,2L55.3,21.4z"/>
        </g>
      </g>
    </g>
  </g>
</svg>
